<svg xmlns="http://www.w3.org/2000/svg" viewBox="0 0 283.8 80">
    <path fill="#E8322B" d="M31.8 79.8v-39L4.4 24.7v33H0V17.1l36.2 21.2v33.9l11.5-6.6V31.4l-34-19.7L34 0l34 19.6v38.1h-4.4V22.2L34 5.1l-11.5 6.6 29.6 17.1v39.3z"/>
    <path d="M98.2 51s-1.4 1.4-4 1.4c-3.3 0-6.1-2.2-6.1-5.6v-7.9h-3.4v-3.3h1.7c1.2 0 1.9-.8 1.9-2v-3.4h4.1v5.1h4.3v3.6h-4.3v7.6c0 1.2 1 2 2.2 2 1 0 2-.6 2-.6l1.6 3.1zM99.7 30.5c0-1.6 1.3-2.9 2.9-2.9 1.6 0 2.9 1.3 2.9 2.9 0 1.5-1.3 2.9-2.9 2.9-1.6-.1-2.9-1.4-2.9-2.9zm5.1 21.7h-4.4v-17h4.4v17zM125 45h-12.4c.5 2.6 2.6 3.5 4.5 3.5 2.3 0 3.3-1.4 3.3-1.4h4.3c-1.3 3.4-4.4 5.3-7.7 5.3-4.6 0-8.6-3.5-8.6-8.8 0-5.3 4-8.5 8.5-8.5 4.2 0 8.6 3 8.1 9.9zm-12.2-3.4h7.6c-.5-2-1.9-2.8-3.6-2.8-1.8 0-3.3 1-4 2.8zM134.6 38.7c-1.4 0-2 .7-2 1.4 0 1.2 1.5 1.5 2.5 1.7 3 .6 6.1 1.6 6.1 5.2 0 3.5-2.9 5.4-6.4 5.4-3.9 0-6.9-2.4-7.1-6h4.2c.1 1 .8 2.3 2.9 2.3 1.7 0 2.1-.9 2.1-1.6 0-1.3-1.2-1.6-2.3-1.9-2-.4-6.3-1.3-6.3-5.1 0-3.3 3.2-5 6.5-5 3.8 0 6.3 2.3 6.5 5.2H137c-.1-.6-.7-1.6-2.4-1.6z"/>
    <path fill="#E8322C" d="M143.6 49.7c0-1.5 1.2-2.7 2.7-2.7 1.5 0 2.7 1.2 2.7 2.7 0 1.5-1.2 2.7-2.7 2.7-1.4 0-2.7-1.2-2.7-2.7z"/>
    <path d="M170.2 43v9.2h-4.5V44c0-.6.4-4.9-2.9-5-1.6-.1-4.5.8-4.5 5.2v8h-4.5v-17h3.5l.6 2.1h.6c.7-.8 2.3-2.2 5.2-2.2 4.4 0 6.5 3.2 6.5 7.9zM190.2 45h-12.4c.5 2.6 2.6 3.5 4.5 3.5 2.3 0 3.3-1.4 3.3-1.4h4.3c-1.3 3.4-4.4 5.3-7.7 5.3-4.6 0-8.6-3.5-8.6-8.8 0-5.3 4-8.5 8.5-8.5 4.2 0 8.6 3 8.1 9.9zM178 41.6h7.6c-.5-2-1.9-2.8-3.6-2.8-1.8 0-3.3 1-4 2.8zM205.2 51s-1.4 1.4-4 1.4c-3.3 0-6.1-2.2-6.1-5.6v-7.9h-3.4v-3.3h1.7c1.2 0 1.9-.8 1.9-2v-3.4h4.1v5.1h4.3v3.6h-4.3v7.6c0 1.2 1 2 2.2 2 1 0 2-.6 2-.6l1.6 3.1zM231.8 35.2l-4 17h-6l-2.3-9.9h-.5l-2.3 9.9h-6l-4-17h4.4l2.6 11.9h.6l2.3-10.5h5.4l2.4 10.5h.5l2.6-11.9h4.3zM233.5 43.8c0-5.4 4.2-8.7 8.8-8.7 4.6 0 8.6 3.3 8.6 8.6 0 5.4-4.1 8.7-8.7 8.7-4.7 0-8.7-3.3-8.7-8.6zm12.9-.1c0-2.7-1.6-4.7-4.1-4.7-2.6 0-4.3 2.1-4.3 4.7 0 2.7 1.7 4.7 4.3 4.7 2.5.1 4.1-2 4.1-4.7zM264.9 35.1v4.4c-.3-.1-.9-.1-1.5-.1-2.4 0-4.9 1.2-4.9 4.4v8.6H254v-17h3.5l.6 1.9h.5c.7-.7 2.4-2 5.2-2h1.1zM277.1 42.5l6.7 9.8H279l-4.7-6.7-1.7 1.8h-.1v4.9h-4.3V28.1h4.3V41h.7l5.5-5.8h5.2l-6.8 7.3z"/>
</svg>
